<svg width="36" height="36" viewBox="0 0 36 36" fill="none" xmlns="http://www.w3.org/2000/svg">
<path d="M25.2188 16.6875C25.2188 18.1152 24.7954 19.5109 24.0022 20.698C23.209 21.8851 22.0816 22.8104 20.7625 23.3568C19.4434 23.9031 17.992 24.0461 16.5917 23.7675C15.1914 23.489 13.9051 22.8015 12.8956 21.7919C11.886 20.7824 11.1985 19.4961 10.92 18.0958C10.6414 16.6955 10.7844 15.2441 11.3308 13.925C11.8771 12.606 12.8024 11.4785 13.9895 10.6853C15.1766 9.89212 16.5723 9.46875 18 9.46875C19.9145 9.46875 21.7507 10.2293 23.1044 11.5831C24.4582 12.9369 25.2188 14.773 25.2188 16.6875ZM35.0625 18C35.0625 21.3746 34.0618 24.6735 32.187 27.4794C30.3121 30.2853 27.6473 32.4723 24.5295 33.7637C21.4118 35.0551 17.9811 35.393 14.6713 34.7346C11.3615 34.0763 8.32123 32.4512 5.935 30.065C3.54876 27.6788 1.92372 24.6385 1.26536 21.3287C0.606999 18.0189 0.944893 14.5882 2.23631 11.4705C3.52773 8.3527 5.71468 5.6879 8.52059 3.81305C11.3265 1.9382 14.6254 0.9375 18 0.9375C22.5226 0.946172 26.8575 2.74661 30.0554 5.94457C33.2534 9.14253 35.0538 13.4774 35.0625 18ZM32.4375 18C32.4384 15.6617 31.8713 13.3581 30.785 11.2875C29.6987 9.2168 28.1257 7.44097 26.2012 6.11269C24.2768 4.78441 22.0586 3.94342 19.7372 3.66206C17.4159 3.3807 15.061 3.66738 12.8749 4.49745C10.6889 5.32751 8.73719 6.67612 7.18765 8.42731C5.63811 10.1785 4.5371 12.2798 3.9793 14.5507C3.4215 16.8215 3.42362 19.1938 3.98545 21.4636C4.54729 23.7334 5.65204 25.8328 7.2047 27.5813C8.26713 26.0572 9.63622 24.772 11.2242 23.8078C13.0475 25.5546 15.475 26.5297 18 26.5297C20.525 26.5297 22.9525 25.5546 24.7758 23.8078C26.3638 24.772 27.7329 26.0572 28.7953 27.5813C31.1457 24.9437 32.4423 21.5329 32.4375 18Z" fill="#6B6B6B"/>
</svg>
