<svg width="133" height="31" viewBox="0 0 133 31" fill="none" xmlns="http://www.w3.org/2000/svg">
<path d="M24.0834 12.4629C24.0487 13.0601 23.7802 13.6227 23.3211 14.0208L17.3177 19.2485C16.9018 19.612 16.3734 19.8111 15.819 19.8024C15.793 19.8024 15.767 19.8024 15.741 19.8024L15.5158 19.7851C15.074 19.7245 14.6581 19.5254 14.3289 19.2225L10.8551 16.0721C9.99749 15.3018 9.79824 14.0814 10.3613 13.164C11.0284 12.0994 12.4231 11.7792 13.4886 12.4456C13.6013 12.5149 13.7052 12.6014 13.8092 12.688L14.97 13.7352C15.4811 14.2026 16.2608 14.2112 16.7806 13.7525L20.289 10.6973C20.9821 10.0915 21.9263 9.92701 22.706 10.2646C23.5896 10.6281 24.1354 11.5109 24.0834 12.4629Z" fill="#25CF60"/>
<path d="M11.522 30.4559C3.21428 28.2143 -1.70627 19.689 0.546093 11.4408C2.79845 3.19254 11.4007 -1.69756 19.7085 0.544094C20.9386 0.872986 21.6663 2.13662 21.3458 3.36564C21.0166 4.59465 19.7518 5.32168 18.5217 5.00144C18.513 5.00144 18.5043 4.99278 18.4957 4.99278C12.6569 3.41757 6.61881 6.85362 5.03349 12.6525C3.44817 18.4514 6.90468 24.4407 12.7435 26.0159C18.5823 27.5824 24.6204 24.1464 26.2057 18.3562C26.5435 17.1185 27.8257 16.4001 29.0558 16.7377C30.2773 17.0752 31.005 18.3389 30.6844 19.5592C28.4321 27.8075 19.8384 32.6976 11.522 30.4559Z" fill="#25CF60"/>
<path d="M40.0324 10.7836H36.0215V8.44672H46.8848V10.7836H42.8739V22.5371H40.0324V10.7836V10.7836Z" fill="white"/>
<path d="M49.0939 7.7453C50.0295 7.7453 50.6965 8.42905 50.6965 9.33783C50.6965 10.2466 50.0295 10.9304 49.0939 10.9304C48.1583 10.9304 47.4912 10.2466 47.4912 9.33783C47.4912 8.42905 48.1669 7.7453 49.0939 7.7453ZM47.7164 12.0642H50.4713V22.5281H47.7164V12.0642Z" fill="white"/>
<path d="M52.2382 12.0637H54.8717V13.31C55.4001 12.3407 56.4137 11.8214 57.9124 11.8214C59.2725 11.8214 60.3207 12.3666 60.9531 13.31C61.7241 12.3233 62.9022 11.8214 64.4356 11.8214C66.6446 11.8214 68.204 13.31 68.204 15.8286V22.5276H65.4491V16.27C65.4491 15.067 64.9034 14.2015 63.5606 14.2015C62.3478 14.2015 61.5941 14.9285 61.5941 16.3306V22.5276H58.8393V16.27C58.8393 15.067 58.2936 14.2015 56.9508 14.2015C55.712 14.2015 54.9843 14.9285 54.9843 16.3306V22.5276H52.2295V12.0637H52.2382Z" fill="white"/>
<path d="M69.3477 18.1057V16.6776C69.3477 13.8388 71.0543 11.8308 74.2162 11.8308C77.3349 11.8308 78.9202 13.8994 78.9202 16.418V18.2528H72.0245V18.5125C72.0245 19.7415 72.6569 20.8061 74.2509 20.8061C75.429 20.8061 76.1567 20.2002 76.4166 19.4819H78.8249C78.4611 21.3946 76.5725 22.7794 74.2422 22.7794C71.2708 22.7708 69.3477 21.0398 69.3477 18.1057ZM72.0245 16.3141H76.382V16.0545C76.382 14.7476 75.6889 13.7609 74.2162 13.7609C72.6309 13.7609 72.0245 14.8081 72.0245 16.2189V16.3141Z" fill="white"/>
<path d="M79.9248 16.4961V14.4881C79.9248 10.8876 81.848 8.16994 86.1275 8.16994C89.7139 8.16994 91.923 10.5847 92.0702 13.4582H89.4367C89.2548 11.8656 88.2412 10.4808 86.1361 10.4808C83.7625 10.4808 82.7489 12.0907 82.7489 14.341V16.6346C82.7489 18.8849 83.7625 20.4947 86.1361 20.4947C88.2412 20.4947 89.2548 19.1099 89.4367 17.5174H92.0702C91.9316 20.3909 89.7226 22.8056 86.1275 22.8056C81.848 22.8143 79.9248 20.0966 79.9248 16.4961Z" fill="white"/>
<path d="M92.9629 19.5165C92.9629 17.2402 94.6868 16.1929 97.2164 16.1929C98.4725 16.1929 99.4081 16.6776 99.8932 17.0758V15.6477C99.8932 14.6783 99.2002 13.96 98.0654 13.96C97.1124 13.96 96.5234 14.384 96.2375 14.9466H93.6906C94.297 12.9127 95.9429 11.8308 98.2126 11.8308C100.846 11.8308 102.648 13.4233 102.648 15.8554V22.5371H99.9885V21.5677C99.5034 22.2688 98.1606 22.7708 96.9478 22.7708C94.5829 22.7708 92.9629 21.5418 92.9629 19.5165ZM99.8932 19.4126C99.8932 18.4865 98.9836 17.9413 97.7448 17.9413C96.4454 17.9413 95.6397 18.4606 95.6397 19.4299C95.6397 20.3993 96.5147 20.9619 97.6669 20.9619C98.8797 20.9619 99.8932 20.2954 99.8932 19.4126Z" fill="white"/>
<path d="M104.252 12.0637H106.885V13.31C107.414 12.3407 108.427 11.8214 109.926 11.8214C111.286 11.8214 112.334 12.3666 112.967 13.31C113.738 12.3233 114.916 11.8214 116.449 11.8214C118.658 11.8214 120.218 13.31 120.218 15.8286V22.5276H117.463V16.27C117.463 15.067 116.917 14.2015 115.574 14.2015C114.361 14.2015 113.608 14.9285 113.608 16.3306V22.5276H110.853V16.27C110.853 15.067 110.307 14.2015 108.964 14.2015C107.726 14.2015 106.998 14.9285 106.998 16.3306V22.5276H104.243V12.0637H104.252Z" fill="white"/>
<path d="M132.024 16.4345V18.1655C132.024 20.6841 130.439 22.77 127.606 22.77C126.212 22.77 125.137 22.2074 124.583 21.4025V26.0329H121.828V12.0637H124.462V13.31C124.99 12.5051 126.064 11.8214 127.58 11.8214C130.482 11.8214 132.024 13.9591 132.024 16.4345ZM124.583 16.5557V18.0876C124.583 19.6801 125.64 20.5629 126.896 20.5629C128.455 20.5629 129.27 19.5157 129.27 18.0443V16.5557C129.27 15.1709 128.516 14.037 126.922 14.037C125.519 14.037 124.583 15.0843 124.583 16.5557Z" fill="white"/>
</svg>
