<?xml version="1.0" encoding="UTF-8"?>
<svg width="22px" height="23px" viewBox="0 0 22 23" version="1.1" xmlns="http://www.w3.org/2000/svg" xmlns:xlink="http://www.w3.org/1999/xlink">
    <title>logoTC</title>
    <g id="logoTC" stroke="none" stroke-width="1" fill="none" fill-rule="evenodd">
        <g id="time-camp-logo-obszar-roboczy-1" fill="#8A8A8A" fill-rule="nonzero">
            <path d="M17.2914961,9.49775591 C17.2698031,9.91366142 17.0798031,10.3026378 16.7633858,10.5764173 L12.6028346,14.1998819 C12.3163386,14.4497244 11.9475591,14.5873622 11.565315,14.5866172 C11.5473622,14.5866172 11.5286614,14.5866172 11.5107087,14.5843701 L11.352874,14.5694094 C11.0461811,14.5245276 10.758937,14.3898819 10.5300394,14.1804331 L8.12137795,11.9991732 C7.53417323,11.495 7.39204724,10.6474803 7.78251969,9.98173228 C8.02712598,9.58751969 8.43555118,9.32346457 8.89708661,9.25838583 C9.35937008,9.19405512 9.8253937,9.33767717 10.1694882,9.6496063 L10.9751181,10.3751969 C11.328937,10.6968504 11.8705118,10.7028346 12.2295669,10.3871654 L14.6629134,8.26948819 C15.1162205,7.85732283 15.7685039,7.74062992 16.3385039,7.97027559 C16.9488976,8.22909449 17.3303937,8.84023622 17.2914961,9.49775591 Z" id="Path"></path>
            <path d="M8.20889764,22.4229921 C2.33759843,20.7982677 -1.12877953,14.6352362 0.465275591,8.65622047 C2.06007874,2.67720472 8.11165354,-0.854251969 13.9837008,0.768228346 C14.5492126,0.923818898 14.9898031,1.37488189 15.1394094,1.95161417 C15.2890157,2.52759843 15.1259449,3.14098425 14.7100394,3.56137795 C14.2948819,3.98177165 13.6904724,4.14409449 13.1257087,3.98700787 C8.99956693,2.84625984 4.74551181,5.32748031 3.62570866,9.52992126 C2.50440945,13.7316142 4.94149606,18.0627165 9.0676378,19.2042126 C13.1945276,20.3449606 17.4478346,17.8637402 18.5683858,13.6612992 C18.7217323,13.086811 19.1645669,12.6387402 19.7300787,12.4868898 C20.2955906,12.3342913 20.8985039,12.5011024 21.3106693,12.9237402 C21.7228346,13.346378 21.8829134,13.9612598 21.7295669,14.535748 C20.1287795,20.5110236 14.0809449,24.0394882 8.20964567,22.4229921 L8.20889764,22.4229921 Z" id="Path"></path>
        </g>
    </g>
</svg>