<svg xmlns="http://www.w3.org/2000/svg" width="126" height="31" viewBox="0 0 126 31">
    <g fill="none" fill-rule="evenodd">
        <g fill-rule="nonzero">
            <g>
                <path fill="#25CF60" d="M22.996 12.697c-.029.556-.283 1.076-.705 1.442l-5.559 4.844c-.383.334-.876.518-1.385.517-.025 0-.05 0-.074-.003l-.21-.02c-.41-.06-.794-.24-1.099-.52l-3.218-2.916c-.784-.674-.975-1.807-.453-2.697.326-.527.872-.88 1.49-.967.616-.086 1.24.106 1.7.523l1.075.97c.472.43 1.196.438 1.676.016l3.25-2.831c.606-.551 1.477-.707 2.239-.4.815.346 1.325 1.163 1.273 2.042z" transform="translate(-150 -28) translate(150 28)"/>
                <path fill="#25CF60" d="M10.862 29.976C3.02 27.804-1.612 19.565.518 11.572 2.648 3.579 10.732-1.142 18.576 1.027c.755.208 1.344.811 1.544 1.582.2.77-.018 1.59-.573 2.152-.556.562-1.363.779-2.117.569-5.513-1.525-11.195 1.792-12.692 7.41-1.497 5.617 1.758 11.407 7.27 12.933 5.513 1.525 11.196-1.792 12.693-7.41.205-.768.796-1.367 1.552-1.57.756-.204 1.56.019 2.111.584.551.565.764 1.387.56 2.155-2.139 7.988-10.218 12.705-18.062 10.544z" transform="translate(-150 -28) translate(150 28)"/>
                <g fill="#1B1B20">
                    <path d="M3.839 3.175L-.001 3.175-.001.942 10.393.942 10.393 3.175 6.554 3.175 6.554 14.414 3.839 14.414zM12.506.268c.62 0 1.178.37 1.416.939.237.568.106 1.222-.332 1.657-.439.435-1.098.565-1.67.33-.573-.236-.946-.79-.946-1.405-.012-.407.145-.801.435-1.089.29-.288.687-.444 1.097-.432zm-1.319 4.138h2.638v10.008h-2.638V4.406zM15.51 4.406h2.522V5.6c.504-.924 1.474-1.425 2.909-1.425 1.299 0 2.307.52 2.908 1.425.737-.944 1.862-1.425 3.336-1.425 2.113 0 3.607 1.425 3.607 3.83v6.41h-2.638V8.428c0-1.155-.523-1.983-1.803-1.983-1.164 0-1.881.693-1.881 2.04v5.928h-2.637V8.43c0-1.155-.524-1.983-1.804-1.983-1.183 0-1.88.693-1.88 2.04v5.928H15.51V4.406zM31.876 10.18V8.814c0-2.714 1.629-4.639 4.654-4.639 2.986 0 4.499 1.983 4.499 4.388v1.752h-6.593v.25c0 1.174.6 2.194 2.133 2.194 1.124 0 1.822-.577 2.075-1.27h2.307c-.349 1.828-2.152 3.156-4.382 3.156-2.85 0-4.693-1.655-4.693-4.465zm2.56-1.713h4.169v-.25c0-1.25-.66-2.194-2.075-2.194-1.513 0-2.094 1-2.094 2.348v.096zM41.997 8.64V6.716c0-3.445 1.843-6.043 5.934-6.043 3.433 0 5.546 2.31 5.682 5.061h-2.52c-.175-1.52-1.145-2.848-3.162-2.848-2.269 0-3.238 1.54-3.238 3.695v2.194c0 2.156.97 3.695 3.238 3.695 2.017 0 2.987-1.328 3.161-2.848h2.521c-.136 2.752-2.25 5.062-5.682 5.062-4.091 0-5.934-2.599-5.934-6.044zM54.465 11.527c0-2.174 1.648-3.175 4.072-3.175.926-.016 1.83.282 2.56.846V7.832c0-.924-.66-1.617-1.745-1.617-.912 0-1.474.405-1.746.943h-2.443c.582-1.943 2.152-2.983 4.324-2.983 2.521 0 4.247 1.52 4.247 3.85v6.39h-2.54v-.925c-.466.674-1.745 1.155-2.909 1.155-2.269 0-3.82-1.174-3.82-3.118zm6.632-.096c0-.885-.873-1.405-2.056-1.405-1.24 0-2.016.5-2.016 1.424 0 .924.833 1.463 1.939 1.463 1.163 0 2.133-.635 2.133-1.482zM65.265 4.406h2.52V5.6c.505-.924 1.474-1.425 2.91-1.425 1.299 0 2.307.52 2.908 1.425.737-.944 1.862-1.425 3.336-1.425 2.113 0 3.606 1.425 3.606 3.83v6.41h-2.637V8.428c0-1.155-.523-1.983-1.803-1.983-1.164 0-1.881.693-1.881 2.04v5.928h-2.638V8.43c0-1.155-.523-1.983-1.803-1.983-1.183 0-1.88.693-1.88 2.04v5.928h-2.638V4.406zM91.83 8.583v1.655c0 2.406-1.513 4.407-4.228 4.407-1.338 0-2.365-.539-2.889-1.309v4.427h-2.637V4.406h2.52V5.6c.505-.77 1.533-1.425 2.987-1.425 2.773 0 4.247 2.04 4.247 4.408zm-7.117.115v1.463c0 1.52 1.008 2.367 2.21 2.367 1.494 0 2.27-1 2.27-2.406V8.698c0-1.328-.718-2.406-2.25-2.406-1.338 0-2.23 1.001-2.23 2.406z" transform="translate(-150 -28) translate(150 28) translate(34 8.5)"/>
                </g>
            </g>
        </g>
    </g>
</svg>
