<svg xmlns="http://www.w3.org/2000/svg" width="157" height="141" viewBox="0 0 157 141">
    <g fill="none" fill-rule="evenodd">
        <g>
            <g>
                <g transform="translate(-142.000000, -190.000000) translate(20.000000, 190.000000) translate(122.000000, 0.000000)">
                    <circle cx="70.5" cy="70.5" r="70.5" fill="#F9F9F9" fill-rule="nonzero"/>
                    <path fill="#F9F9F9" fill-rule="nonzero" stroke="#2FA960" d="M22.17 34.585h105.528c1.47 0 2.66 1.191 2.66 2.66v66.51H19.51v-66.51c0-1.469 1.192-2.66 2.66-2.66z"/>
                    <path fill="#F9F9F9" fill-rule="nonzero" stroke="#2FA960" d="M26.302 37.76h97.796c1.547 0 2.802 1.254 2.802 2.802v63.122H23.5V40.562c0-1.548 1.255-2.802 2.802-2.802z"/>
                    <path fill="#2FA960" fill-rule="nonzero" stroke="#2FA960" d="M29.85 38.646h97.795c1.548 0 2.802 1.255 2.802 2.803v63.122h-103.4V41.449c0-1.548 1.255-2.803 2.802-2.803z" opacity=".06"/>
                    <path stroke="#2FA960" stroke-dasharray="7" stroke-width="2" d="M5.321 24.83L9.755 20.396M9.755 24.83L5.321 20.396M121.491 7.981L125.925 3.547M125.925 7.981L121.491 3.547"/>
                    <circle cx="90.009" cy="119.274" r="1.774" stroke="#2FA960"/>
                    <circle cx="16.406" cy="124.594" r="2.66" stroke="#2FA960"/>
                    <circle cx="17.736" cy="125.038" r="2.66" fill="#2FA960" fill-rule="nonzero" opacity=".11"/>
                    <rect width="117.057" height="4.877" x="15.075" y="103.755" fill="#F9F9F9" fill-rule="nonzero" stroke="#2FA960" rx="1.36"/>
                    <path stroke="#2FA960" stroke-linecap="round" stroke-width="2" d="M1.774 109.022L146.321 109.022M149.868 109.075L155.189 109.075"/>
                    <circle cx="73.825" cy="58.307" r="13.08" stroke="#2FA960" stroke-width="2.27"/>
                    <circle cx="77.373" cy="58.307" r="13.08" fill="#2FA960" fill-rule="nonzero" stroke="#2FA960" opacity=".06"/>
                    <path fill="#2FA960" fill-rule="nonzero" d="M64.097 55.957H83.553V60.648H64.097z"/>
                    <path fill="#FFF" fill-rule="nonzero" stroke="#2FA960" stroke-width="1.05" d="M66.962 18.835L80.246 18.835 80.246 154.071 66.962 154.071z" transform="translate(73.603774, 86.453396) rotate(90.000000) translate(-73.603774, -86.453396)"/>
                    <path fill="#2FA960" fill-rule="nonzero" d="M13.133 93.095L21.168 79.811 14.073 79.811 6.039 93.095zM26.435 93.095L34.47 79.811 27.375 79.811 19.341 93.095zM39.737 93.095L47.772 79.811 40.677 79.811 32.643 93.095zM53.039 93.095L61.073 79.811 53.979 79.811 45.945 93.095zM66.341 93.095L74.375 79.811 67.281 79.811 59.247 93.095zM79.643 93.095L87.677 79.811 80.583 79.811 72.548 93.095zM92.945 93.095L100.979 79.811 93.885 79.811 85.85 93.095zM106.247 93.095L114.281 79.811 107.187 79.811 99.152 93.095zM119.548 93.095L127.583 79.811 120.488 79.811 112.454 93.095zM132.85 93.095L140.885 79.811 133.79 79.811 125.756 93.095z"/>
                    <path fill="#FFF" fill-rule="nonzero" stroke="#2FA960" d="M8.203 93.095H12.637V108.632H8.203z"/>
                    <path fill="#2FA960" fill-rule="nonzero" stroke="#2FA960" d="M9.09 93.095H13.524000000000001V108.188H9.09z" opacity=".06"/>
                    <path fill="#FFF" fill-rule="nonzero" stroke="#2FA960" stroke-width="1.01" d="M135.014 93.095H139.448V108.632H135.014z"/>
                    <path fill="#2FA960" fill-rule="nonzero" stroke="#2FA960" d="M136.788 93.095H141.222V108.188H136.788z" opacity=".06"/>
                </g>
            </g>
        </g>
    </g>
</svg>
