<svg xmlns="http://www.w3.org/2000/svg" width="211" height="159" viewBox="0 0 211 159">
    <g fill="none" fill-rule="evenodd">
        <g>
            <g>
                <g transform="translate(-115 -193) translate(20 193) translate(95)">
                    <circle cx="112.66" cy="79.5" r="79.5" fill="#F9F9F9" fill-rule="nonzero"/>
                    <path stroke="#2FA960" stroke-linecap="round" stroke-width="2" d="M36.16 122.94L199.16 122.94M203.16 123L209.16 123"/>
                    <path fill="#FFF" fill-rule="nonzero" stroke="#2FA960" stroke-linecap="round" stroke-width=".78" d="M27.93 87.13L24.62 98.26 30.69 99.62 31.19 87.93z"/>
                    <path fill="#FFF" fill-rule="nonzero" stroke="#2FA960" stroke-width=".78" d="M22.1 86.56l15.33 3.36s.18-3.41-6.94-5c-7.12-1.59-8.39 1.64-8.39 1.64z"/>
                    <path fill="#FFF" fill-rule="nonzero" stroke="#2FA960" stroke-width=".78" d="M34.83 82.17c-1 4.54-5.64 7.38-5.64 7.38s-3-4.52-2-9.06c.313-1.57.862-3.085 1.63-4.49.986-1.377 2.388-2.4 4-2.92 1.015.852 1.747 1.993 2.1 3.27.405 1.922.375 3.911-.09 5.82h0z"/>
                    <path stroke="#2FA960" stroke-width=".78" d="M28.61 76.5L35.2 77.95"/>
                    <circle cx="30.75" cy="82.43" r="1.96" stroke="#2FA960" stroke-width=".78"/>
                    <g fill="#2FA960" fill-rule="nonzero" opacity=".11">
                        <path d="M8.56 9.08c-1 4.54-5.63 7.38-5.63 7.38s-3-4.52-2-9.06c.318-1.539.864-3.022 1.62-4.4.99-1.376 2.39-2.402 4-2.93 1.009.86 1.737 2.002 2.09 3.28.4 1.892.373 3.85-.08 5.73z" transform="translate(25 73)"/>
                    </g>
                    <path stroke="#2FA960" stroke-linecap="round" stroke-width=".39" d="M21.56 87.75L20.96 90.95M23.08 88.09L22.48 91.29M20.87 91.73L20.81 92.05M37.23 91.26L36.41 94.41M35.71 90.92L34.89 94.07M36.16 95.16L36.08 95.47"/>
                    <path fill="#FFF" fill-rule="nonzero" stroke="#2FA960" stroke-linecap="round" stroke-width=".78" d="M33.35 101.81c.055-.118.095-.242.12-.37.171-.74-.064-1.516-.619-2.035-.554-.52-1.344-.704-2.071-.485-.234-1.31-1.23-2.35-2.528-2.64-1.297-.291-2.642.226-3.412 1.31-.268-.244-.596-.413-.95-.49-.554-.125-1.136-.025-1.616.279-.48.304-.82.786-.944 1.341-.01.13-.01.26 0 .39l12.02 2.7z"/>
                    <path fill="#FFF" fill-rule="nonzero" stroke="#2FA960" stroke-linecap="round" stroke-width=".78" d="M26.52 100.28c.05-.12.09-.243.12-.37.163-.729-.067-1.49-.608-2.006-.54-.516-1.311-.71-2.032-.514-.21-1.342-1.22-2.418-2.546-2.712-1.326-.294-2.697.254-3.454 1.382-.28-.255-.627-.425-1-.49-1.151-.255-2.291.47-2.55 1.62-.026.129-.043.259-.05.39l12.12 2.7zM41.7 103.68c.05-.12.09-.243.12-.37.171-.74-.064-1.516-.619-2.035-.554-.52-1.344-.704-2.071-.485-.234-1.31-1.23-2.35-2.528-2.64-1.297-.291-2.642.226-3.412 1.31-.28-.255-.627-.425-1-.49-.553-.125-1.133-.024-1.612.28-.479.304-.816.786-.938 1.34-.026.125-.043.252-.05.38l12.11 2.71z"/>
                    <path fill="#2FA960" fill-rule="nonzero" d="M41.48 103.23c-.386-1.053-1.526-1.623-2.6-1.3-.22-1.335-1.229-2.403-2.55-2.695-1.32-.293-2.687.248-3.45 1.365-.266-.246-.595-.416-.95-.49-.717-.174-1.473.034-2 .55l11.55 2.57zM27.06 100c-.386-1.053-1.526-1.623-2.6-1.3-.238-1.308-1.237-2.347-2.534-2.637-1.298-.29-2.643.225-3.416 1.307-.28-.255-.627-.425-1-.49-.717-.174-1.473.034-2 .55L27.06 100z" opacity=".06"/>
                    <path fill="#F9F9F9" fill-rule="nonzero" stroke="#2FA960" d="M26.763 86.007h14.1c.519 0 .94.42.94.94v46.56h-16v-46.56c0-.253.101-.495.282-.672.18-.177.425-.273.678-.268h0z" transform="rotate(-77.98 33.803 109.757)"/>
                    <circle cx="46.92" cy="112.42" r="2.36" stroke="#2FA960"/>
                    <circle cx="47.55" cy="111.34" r="2.36" fill="#2FA960" fill-rule="nonzero" opacity=".11"/>
                    <rect width="10.22" height="19.81" x="19.796" y="97.952" fill="#F9F9F9" fill-rule="nonzero" stroke="#2FA960" rx=".89" transform="rotate(-77.98 24.906 107.857)"/>
                    <rect width="10.22" height="19.81" x="21.314" y="96.971" fill="#2FA960" fill-rule="nonzero" opacity=".06" rx=".89" transform="rotate(-77.98 26.424 106.876)"/>
                    <path fill="#F9F9F9" fill-rule="nonzero" stroke="#2FA960" stroke-linecap="round" d="M18.61 109.78L19.94 103.53M23.92 110.91L25.25 104.66M29.24 112.04L30.57 105.79"/>
                    <path fill="#F9F9F9" fill-rule="nonzero" stroke="#2FA960" d="M62.6 75h14.1c.52 0 .94.42.94.94v46.56h-16V75.94c0-.253.102-.495.282-.672.181-.177.425-.273.678-.268z"/>
                    <circle cx="69.78" cy="112.13" r="2.36" stroke="#2FA960"/>
                    <circle cx="70.96" cy="112.52" r="2.36" fill="#2FA960" fill-rule="nonzero" opacity=".11"/>
                    <rect width="10.22" height="19.81" x="64.54" y="79.74" fill="#F9F9F9" fill-rule="nonzero" stroke="#2FA960" rx=".89"/>
                    <rect width="10.22" height="19.81" x="65.82" y="81.02" fill="#2FA960" fill-rule="nonzero" opacity=".06" rx=".89"/>
                    <path fill="#F9F9F9" fill-rule="nonzero" stroke="#2FA960" stroke-linecap="round" d="M66.46 83.89L72.85 83.89M66.46 89.33L72.85 89.33M66.46 94.76L72.85 94.76"/>
                    <path fill="#F9F9F9" fill-rule="nonzero" stroke="#2FA960" d="M82.45 75h14.1c.52 0 .94.42.94.94v46.56h-16V75.94c0-.253.102-.495.282-.672.181-.177.425-.273.678-.268h0z"/>
                    <circle cx="89.63" cy="112.13" r="2.36" stroke="#2FA960"/>
                    <circle cx="90.81" cy="112.52" r="2.36" fill="#2FA960" fill-rule="nonzero" opacity=".11"/>
                    <rect width="10.22" height="19.81" x="84.39" y="79.74" fill="#F9F9F9" fill-rule="nonzero" stroke="#2FA960" rx=".89"/>
                    <rect width="10.22" height="19.81" x="85.67" y="81.02" fill="#2FA960" fill-rule="nonzero" opacity=".06" rx=".89"/>
                    <path fill="#F9F9F9" fill-rule="nonzero" stroke="#2FA960" stroke-linecap="round" d="M86.31 83.89L92.7 83.89M86.31 89.33L92.7 89.33M86.31 94.76L92.7 94.76"/>
                    <path fill="#4BB063" fill-rule="nonzero" d="M103.72 13.88l-2.24-.65c-.26-.079-.439-.318-.44-.59 0-.337.273-.61.61-.61H103c.252-.001.5.072.71.21.115.098.285.098.4 0l.72-.7c.073-.065.115-.157.115-.255s-.042-.19-.115-.255c-.516-.4-1.147-.621-1.8-.63v-1c.021-.099-.004-.202-.068-.28-.064-.078-.16-.122-.262-.12h-.7c-.182 0-.33.148-.33.33v1c-.64 0-1.251.27-1.682.744-.43.475-.64 1.109-.578 1.746.115.96.805 1.753 1.74 2l2.12.63c.26.072.44.31.44.58.003.164-.06.321-.175.438-.115.116-.271.182-.435.182h-1.37c-.254.001-.501-.076-.71-.22-.119-.099-.291-.099-.41 0l-.72.71c-.076.06-.12.153-.12.25s.044.19.12.25c.513.398 1.14.62 1.79.63v1c0 .184.146.335.33.34h.67c.184-.005.33-.156.33-.34v-1c.974.004 1.847-.598 2.19-1.51.21-.588.167-1.237-.116-1.793-.284-.557-.785-.971-1.384-1.147l.02.06zM191.72 39.88l-2.24-.65c-.26-.079-.439-.318-.44-.59 0-.337.273-.61.61-.61H191c.252-.001.5.072.71.21.115.098.285.098.4 0l.72-.7c.073-.065.115-.157.115-.255s-.042-.19-.115-.255c-.516-.4-1.147-.621-1.8-.63v-1c0-.182-.148-.33-.33-.33h-.7c-.182 0-.33.148-.33.33v1c-.64 0-1.251.27-1.682.744-.43.475-.64 1.109-.578 1.746.115.96.805 1.753 1.74 2l2.12.63c.26.072.44.31.44.58.003.164-.06.321-.175.438-.115.116-.271.182-.435.182h-1.37c-.254.001-.501-.076-.71-.22-.119-.099-.291-.099-.41 0l-.72.71c-.076.06-.12.153-.12.25s.044.19.12.25c.513.398 1.14.62 1.79.63v1c0 .184.146.335.33.34h.67c.184-.005.33-.156.33-.34v-1c.974.004 1.847-.598 2.19-1.51.21-.588.167-1.237-.116-1.793-.284-.557-.785-.971-1.384-1.147l.02-.01zM147.27 15.13l-1-.29c-.118-.032-.2-.138-.2-.26.005-.147.123-.265.27-.27h.66c.11.002.219.037.31.1.052.044.128.044.18 0l.31-.31c.034-.027.053-.067.053-.11s-.02-.083-.053-.11c-.224-.18-.503-.279-.79-.28v-.43c0-.083-.067-.15-.15-.15h-.29c-.079.005-.14.07-.14.15v.43c-.282-.001-.55.116-.74.324-.191.207-.285.486-.26.766.04.426.345.78.76.88l.94.28c.117.047.186.168.167.292-.02.124-.122.219-.247.228h-.6c-.11.001-.218-.03-.31-.09-.052-.044-.128-.044-.18 0l-.32.31c-.03.028-.048.068-.048.11 0 .042.017.082.048.11.226.174.504.27.79.27v.44c0 .08.061.145.14.15h.29c.083 0 .15-.067.15-.15v-.44c.443.026.85-.243 1-.66.09-.258.071-.543-.053-.787-.125-.243-.344-.425-.607-.503h-.08zM69 55.58l-1.19-.35c-.147-.053-.237-.202-.216-.357.022-.155.15-.273.306-.283h.73c.136-.001.27.04.38.12.067.044.153.044.22 0l.38-.38c.039-.034.06-.083.06-.135 0-.052-.021-.1-.06-.135-.285-.223-.638-.34-1-.33v-.53c0-.1-.08-.18-.18-.18h-.36c-.095.005-.17.084-.17.18v.53c-.338-.012-.666.12-.904.36-.237.242-.363.572-.346.91.064.513.431.936.93 1.07l1.13.33c.143.04.241.171.24.32 0 .087-.035.17-.097.23s-.146.093-.233.09h-.73c-.135 0-.267-.038-.38-.11-.058-.057-.152-.057-.21 0l-.39.37c-.04.036-.062.087-.062.14 0 .053.023.104.062.14.285.222.639.338 1 .33v.53c0 .096.075.175.17.18h.36c.1 0 .18-.08.18-.18V58c.519-.006.982-.326 1.17-.81.12-.318.103-.671-.047-.976-.15-.305-.418-.534-.743-.634zM35.29 39.86L33 39.2c-.3-.078-.493-.369-.45-.676.044-.307.31-.532.62-.524h1.38c.256 0 .507.077.72.22.118.09.282.09.4 0l.73-.71c.07-.066.11-.158.11-.255s-.04-.189-.11-.255c-.516-.4-1.147-.621-1.8-.63v-1c-.005-.184-.156-.33-.34-.33h-.66c-.184 0-.335.146-.34.33v1c-.64.003-1.25.274-1.681.747-.431.473-.645 1.105-.589 1.743.125.96.816 1.749 1.75 2l2.13.62c.26.079.439.318.44.59.003.164-.06.321-.175.438-.115.116-.271.182-.435.182h-1.43c-.254.001-.501-.076-.71-.22-.119-.099-.291-.099-.41 0l-.73.71c-.07.066-.11.158-.11.255s.04.189.11.255c.514.401 1.148.62 1.8.62v1c0 .09.036.177.1.24.063.064.15.1.24.1h.66c.188 0 .34-.152.34-.34v-1c.977-.002 1.852-.607 2.2-1.52.226-.597.191-1.261-.096-1.832-.287-.57-.8-.994-1.414-1.168l.04.07z"/>
                    <rect width="52.21" height="67.92" x="106.794" y="34.988" fill="#F9F9F9" fill-rule="nonzero" stroke="#2FA960" stroke-width="1.24" rx="1.23" transform="rotate(1.13 132.9 68.948)"/>
                    <rect width="52.21" height="67.92" x="111.639" y="36.243" fill="#2FA960" fill-rule="nonzero" opacity=".06" rx="1.23" transform="rotate(1.13 137.744 70.203)"/>
                    <path fill="#2FA960" fill-rule="nonzero" d="M122.918 46.334H144.138V47.544000000000004H122.918z" transform="rotate(1.13 133.528 46.94)"/>
                    <path fill="#2FA960" fill-rule="nonzero" d="M118.093 59.277H148.473V60.487H118.093z" transform="rotate(1.13 133.283 59.882)"/>
                    <path fill="#2FA960" fill-rule="nonzero" d="M117.981 64.464H148.361V65.67399999999999H117.981z" transform="rotate(1.13 133.171 65.069)"/>
                    <path fill="#2FA960" fill-rule="nonzero" d="M117.879 69.641H148.25900000000001V70.851H117.879z" transform="rotate(1.13 133.069 70.246)"/>
                    <path fill="#2FA960" fill-rule="nonzero" d="M117.777 74.818H148.157V76.02799999999999H117.777z" transform="rotate(1.13 132.967 75.423)"/>
                    <path fill="#4BB063" fill-rule="nonzero" d="M139.38 88l-.76-.24c-.09-.028-.149-.116-.14-.21 0-.055.022-.107.062-.145.04-.038.093-.058.148-.055h.47c.086.002.17.03.24.08.037.032.093.032.13 0l.26-.24c.023-.023.035-.053.035-.085 0-.032-.012-.062-.035-.085-.173-.14-.388-.216-.61-.22v-.34c.003-.03-.008-.061-.028-.084-.021-.023-.051-.036-.082-.036h-.23c-.06.004-.11.05-.12.11v.34c-.217-.006-.426.08-.576.235-.15.157-.228.369-.214.585.037.328.265.603.58.7l.72.22c.088.033.148.116.15.21-.01.114-.106.2-.22.2h-.46c-.086 0-.17-.029-.24-.08-.042-.03-.098-.03-.14 0l-.25.24c-.025.02-.04.052-.04.085 0 .033.015.064.04.085.17.14.38.221.6.23v.34c0 .06.05.11.11.11h.22c.032 0 .062-.013.085-.035.022-.023.035-.053.035-.085v-.34c.327.008.626-.187.75-.49.073-.197.061-.416-.031-.605-.093-.189-.258-.331-.459-.395zM144.48 88.09l-.76-.24c-.089-.024-.148-.108-.14-.2 0-.116.094-.21.21-.21h.47c.086.002.17.03.24.08.037.032.093.032.13 0l.25-.24c.03-.018.047-.05.047-.085s-.018-.067-.047-.085c-.168-.141-.38-.219-.6-.22v-.34c0-.066-.054-.12-.12-.12h-.22c-.063 0-.115.048-.12.11v.34c-.218-.003-.427.085-.577.242-.15.158-.227.37-.213.588.04.324.268.594.58.69l.72.23c.09.023.153.106.15.2-.01.114-.106.2-.22.2h-.46c-.086 0-.17-.029-.24-.08-.04-.034-.1-.034-.14 0l-.25.23c-.025.02-.04.052-.04.085 0 .033.015.064.04.085.17.14.38.221.6.23v.34c0 .06.05.11.11.11h.22c.03.003.061-.008.084-.028.023-.021.036-.051.036-.082v-.35c.331.012.634-.183.76-.49.073-.197.061-.416-.031-.605-.093-.189-.258-.331-.459-.395l-.01.01zM149.58 88.19l-.76-.24c-.089-.026-.15-.108-.15-.2.005-.118.102-.21.22-.21h.46c.086 0 .17.029.24.08.042.03.098.03.14 0l.25-.24c.025-.02.04-.052.04-.085 0-.033-.015-.064-.04-.085-.168-.141-.38-.219-.6-.22v-.34c.003-.03-.008-.061-.028-.084-.021-.023-.051-.036-.082-.036H149c-.063 0-.115.048-.12.11V87c-.218-.003-.427.085-.577.242-.15.158-.227.37-.213.588.036.326.265.599.58.69l.72.23c.089.024.148.108.14.2 0 .055-.022.107-.062.145-.04.038-.093.058-.148.055h-.47c-.086-.002-.17-.03-.24-.08-.017-.018-.04-.028-.065-.028s-.048.01-.065.028l-.25.23c-.025.02-.04.052-.04.085 0 .033.015.064.04.085.17.14.38.221.6.23v.3c-.003.03.007.06.029.081.021.022.051.032.081.029h.22c.063 0 .115-.048.12-.11v-.3c.333.008.635-.191.76-.5.07-.198.057-.415-.035-.603s-.256-.331-.455-.397l.03-.01z"/>
                    <rect width="52.278" height="68.008" x="115.027" y="40.986" fill="#F9F9F9" fill-rule="nonzero" stroke="#2FA960" stroke-width="1.242" rx="1.23" transform="rotate(8.616 141.166 74.99)"/>
                    <path fill="#2FA960" fill-rule="nonzero" d="M133.919 52.429H155.139V53.639H133.919z" transform="rotate(8.58 144.529 53.034)"/>
                    <path fill="#2FA960" fill-rule="nonzero" d="M127.409 65.248H157.78900000000002V66.458H127.409z" transform="rotate(8.58 142.6 65.853)"/>
                    <path fill="#2FA960" fill-rule="nonzero" d="M126.644 70.365H157.024V71.57499999999999H126.644z" transform="rotate(8.58 141.834 70.97)"/>
                    <path fill="#2FA960" fill-rule="nonzero" d="M125.879 75.483H156.25900000000001V76.693H125.879z" transform="rotate(8.58 141.069 76.088)"/>
                    <path fill="#2FA960" fill-rule="nonzero" d="M125.092 80.609H155.472V81.81899999999999H125.092z" transform="rotate(8.58 140.282 81.214)"/>
                    <path fill="#4BB063" fill-rule="nonzero" d="M145 94.51l-.72-.34c-.082-.041-.13-.129-.12-.22.02-.113.127-.188.24-.17l.46.07c.087.01.168.048.23.11.042.03.098.03.14 0l.28-.2c.023-.023.035-.053.035-.085 0-.032-.012-.062-.035-.085-.152-.16-.352-.266-.57-.3v-.34c.006-.063-.038-.12-.1-.13h-.22c-.03-.006-.063.002-.087.02-.025.02-.04.049-.043.08l-.05.33c-.215-.031-.433.029-.602.166-.17.136-.274.337-.288.554-.001.328.19.626.49.76l.68.32c.083.05.122.15.093.242-.028.093-.116.154-.213.148l-.46-.07c-.086-.014-.166-.052-.23-.11-.042-.03-.098-.03-.14 0l-.27.2c-.025.02-.04.052-.04.085 0 .033.015.064.04.085.152.16.352.266.57.3v.34c-.006.063.038.12.1.13h.22c.03.006.063-.002.087-.02.025-.02.04-.049.043-.08l.05-.33c.33.045.653-.113.82-.4.099-.187.117-.407.048-.608-.068-.2-.215-.364-.408-.452H145zM150.05 95.27l-.72-.34c-.082-.041-.13-.129-.12-.22.02-.113.127-.188.24-.17l.46.07c.087.01.168.048.23.11.042.03.098.03.14 0l.28-.2c.023-.023.035-.053.035-.085 0-.032-.012-.062-.035-.085-.152-.16-.352-.266-.57-.3l.05-.34c.006-.03-.002-.06-.021-.084-.02-.023-.049-.037-.079-.036h-.22c-.063-.006-.12.038-.13.1v.33c-.215-.034-.434.025-.602.162-.168.138-.27.34-.278.558-.014.329.177.631.48.76l.68.32c.108.03.17.142.14.25-.03.108-.142.17-.25.14l-.47-.07c-.11-.008-.214-.058-.29-.14-.04-.034-.1-.034-.14 0l-.28.2c-.025.02-.04.052-.04.085 0 .033.015.064.04.085.152.16.352.266.57.3l-.05.34c-.006.03 0 .06.017.084.017.025.044.041.073.046h.23c.028.006.057 0 .08-.018.023-.017.038-.043.04-.072l.05-.34c.33.045.653-.113.82-.4.099-.187.117-.407.048-.608-.068-.2-.215-.364-.408-.452v.02zM155.09 96l-.72-.34c-.083-.05-.122-.15-.093-.242.028-.093.116-.154.213-.148l.47.07c.083.012.16.05.22.11.042.03.098.03.14 0l.28-.2c.025-.02.04-.052.04-.085 0-.033-.015-.064-.04-.085-.152-.16-.352-.266-.57-.3l.05-.33c.006-.03 0-.06-.017-.084-.017-.025-.044-.041-.073-.046h-.23c-.03-.003-.058.006-.08.025-.023.019-.037.046-.04.075l-.06.33c-.216-.034-.436.024-.605.162-.17.137-.274.34-.285.558-.01.328.18.629.48.76l.69.32c.082.041.13.129.12.22-.024.111-.126.188-.24.18l-.46-.07c-.084-.018-.163-.056-.23-.11-.04-.034-.1-.034-.14 0l-.28.2c-.025.02-.04.052-.04.085 0 .033.015.064.04.085.152.16.352.266.57.3l-.05.34c-.006.03 0 .06.017.084.017.025.044.041.073.046h.23c.03.006.06 0 .084-.017.025-.017.041-.044.046-.073v-.34c.327.05.65-.11.81-.4.099-.187.117-.407.048-.608-.068-.2-.215-.364-.408-.452l.04-.02z"/>
                    <rect width="52.21" height="67.92" x="120.9" y="50.293" fill="#F9F9F9" fill-rule="nonzero" stroke="#2FA960" stroke-width="1.24" rx="1.23" transform="rotate(1.13 147.005 84.253)"/>
                    <rect width="52.21" height="67.92" x="125.744" y="51.538" fill="#2FA960" fill-rule="nonzero" opacity=".06" rx="1.23" transform="rotate(1.13 151.85 85.498)"/>
                    <path fill="#2FA960" fill-rule="nonzero" d="M137.024 61.629H158.244V62.839H137.024z" transform="rotate(1.13 147.634 62.234)"/>
                    <path fill="#2FA960" fill-rule="nonzero" d="M132.189 74.582H162.569V75.79199999999999H132.189z" transform="rotate(1.13 147.379 75.187)"/>
                    <path fill="#2FA960" fill-rule="nonzero" d="M132.086 79.759H162.466V80.969H132.086z" transform="rotate(1.13 147.276 80.364)"/>
                    <path fill="#2FA960" fill-rule="nonzero" d="M131.984 84.946H162.364V86.15599999999999H131.984z" transform="rotate(1.13 147.174 85.55)"/>
                    <path fill="#2FA960" fill-rule="nonzero" d="M131.882 90.123H162.262V91.333H131.882z" transform="rotate(1.13 147.072 90.728)"/>
                    <path fill="#4BB063" fill-rule="nonzero" d="M153.48 103.29l-.75-.24c-.09-.03-.15-.115-.15-.21.005-.112.098-.2.21-.2h.47c.086 0 .17.029.24.08.042.03.098.03.14 0l.25-.24c.023-.023.035-.053.035-.085 0-.032-.012-.062-.035-.085-.172-.143-.387-.224-.61-.23v-.33c.003-.03-.008-.061-.028-.084-.021-.023-.051-.036-.082-.036h-.23c-.03-.003-.06.007-.081.029-.022.021-.032.051-.029.081v.34c-.215-.003-.421.083-.57.24-.148.155-.224.366-.21.58.03.331.26.61.58.7l.72.22c.084.036.14.118.14.21-.005.112-.098.2-.21.2h-.47c-.086 0-.17-.029-.24-.08-.042-.03-.098-.03-.14 0l-.25.24c-.023.023-.035.053-.035.085 0 .032.012.062.035.085.172.143.387.224.61.23v.34c0 .06.05.11.11.11h.23c.031 0 .06-.013.082-.036.02-.023.03-.053.028-.084v-.34c.33.006.63-.187.76-.49.072-.199.06-.418-.035-.608-.094-.189-.263-.33-.465-.392h-.02zM158.58 103.39l-.76-.24c-.086-.034-.142-.118-.14-.21.005-.112.098-.2.21-.2h.47c.086 0 .17.029.24.08.042.03.098.03.14 0l.25-.24c.023-.023.035-.053.035-.085 0-.032-.012-.062-.035-.085-.173-.14-.388-.216-.61-.22v-.34c.003-.03-.008-.061-.028-.084-.021-.023-.051-.036-.082-.036H158c-.06 0-.11.05-.11.11v.34c-.218-.007-.428.08-.577.24-.15.158-.223.373-.203.59.032.325.257.598.57.69l.72.22c.088.033.148.116.15.21-.005.112-.098.2-.21.2h-.47c-.086 0-.17-.029-.24-.08-.042-.03-.098-.03-.14 0l-.25.24c-.023.023-.035.053-.035.085 0 .032.012.062.035.085.172.143.387.224.61.23v.34c0 .06.05.11.11.11h.23c.031 0 .06-.013.082-.036.02-.023.03-.053.028-.084v-.34c.33.01.632-.185.76-.49.072-.199.06-.418-.035-.608-.094-.189-.263-.33-.465-.392h.02zM163.68 103.49l-.76-.24c-.083-.032-.138-.111-.14-.2 0-.116.094-.21.21-.21h.47c.086.002.17.03.24.08.042.03.098.03.14 0l.25-.24c.023-.023.035-.053.035-.085 0-.032-.012-.062-.035-.085-.173-.14-.388-.216-.61-.22V102c.003-.03-.008-.061-.028-.084-.021-.023-.051-.036-.082-.036h-.23c-.06 0-.11.05-.11.11v.34c-.218-.007-.428.08-.577.24-.15.158-.223.373-.203.59.032.325.257.598.57.69l.72.23c.09.023.153.106.15.2-.005.112-.098.2-.21.2H163c-.086 0-.17-.029-.24-.08-.04-.034-.1-.034-.14 0l-.25.23c-.025.02-.04.052-.04.085 0 .033.015.064.04.085.172.143.387.224.61.23v.34c0 .06.05.11.11.11h.23c.06 0 .11-.05.11-.11V105c.33.01.631-.191.75-.5.073-.197.061-.416-.031-.605-.093-.189-.258-.331-.459-.395l-.01-.01z"/>
                    <path stroke="#2FA960" stroke-linecap="round" d="M.53 114.17s-.61 5.11 4 7M.9 111.38L.88 112M4.68 110.1S2.94 115 7 117.83"/>
                </g>
            </g>
        </g>
    </g>
</svg>
